<svg width="541" height="413" viewBox="0 0 541 413" fill="none" xmlns="http://www.w3.org/2000/svg">
<g clip-path="url(#clip0_1_3438)">
<path d="M210.676 39.5H486.324C487.045 39.5 487.688 39.5455 488.14 39.6155C488.29 39.6387 488.41 39.6633 488.5 39.6868V96.3132C488.41 96.3367 488.29 96.3613 488.14 96.3845C487.688 96.4545 487.045 96.5 486.324 96.5H210.676C209.955 96.5 209.312 96.4545 208.86 96.3845C208.71 96.3613 208.59 96.3367 208.5 96.3132V39.6868C208.59 39.6633 208.71 39.6387 208.86 39.6155C209.312 39.5455 209.955 39.5 210.676 39.5Z" fill="white" stroke="#CACACA"/>
<path d="M210.676 105.5H486.324C487.045 105.5 487.688 105.545 488.14 105.615C488.29 105.639 488.41 105.663 488.5 105.687V162.313C488.41 162.337 488.29 162.361 488.14 162.385C487.688 162.455 487.045 162.5 486.324 162.5H210.676C209.955 162.5 209.312 162.455 208.86 162.385C208.71 162.361 208.59 162.337 208.5 162.313V105.687C208.59 105.663 208.71 105.639 208.86 105.615C209.312 105.545 209.955 105.5 210.676 105.5Z" fill="white" stroke="#CACACA"/>
<path d="M210.676 176.5H486.324C487.045 176.5 487.688 176.545 488.14 176.615C488.29 176.639 488.41 176.663 488.5 176.687V233.313C488.41 233.337 488.29 233.361 488.14 233.385C487.688 233.455 487.045 233.5 486.324 233.5H210.676C209.955 233.5 209.312 233.455 208.86 233.385C208.71 233.361 208.59 233.337 208.5 233.313V176.687C208.59 176.663 208.71 176.639 208.86 176.615C209.312 176.545 209.955 176.5 210.676 176.5Z" fill="white" stroke="#CACACA"/>
<path d="M233.158 275.248V277.96H228.694V292H225.334V277.96H220.87V275.248H233.158ZM234.745 285.304C234.745 283.96 235.009 282.768 235.537 281.728C236.081 280.688 236.809 279.888 237.721 279.328C238.649 278.768 239.681 278.488 240.817 278.488C241.809 278.488 242.673 278.688 243.409 279.088C244.161 279.488 244.761 279.992 245.209 280.6V278.704H248.593V292H245.209V290.056C244.777 290.68 244.177 291.2 243.409 291.616C242.657 292.016 241.785 292.216 240.793 292.216C239.673 292.216 238.649 291.928 237.721 291.352C236.809 290.776 236.081 289.968 235.537 288.928C235.009 287.872 234.745 286.664 234.745 285.304ZM245.209 285.352C245.209 284.536 245.049 283.84 244.729 283.264C244.409 282.672 243.977 282.224 243.433 281.92C242.889 281.6 242.305 281.44 241.681 281.44C241.057 281.44 240.481 281.592 239.953 281.896C239.425 282.2 238.993 282.648 238.657 283.24C238.337 283.816 238.177 284.504 238.177 285.304C238.177 286.104 238.337 286.808 238.657 287.416C238.993 288.008 239.425 288.464 239.953 288.784C240.497 289.104 241.073 289.264 241.681 289.264C242.305 289.264 242.889 289.112 243.433 288.808C243.977 288.488 244.409 288.04 244.729 287.464C245.049 286.872 245.209 286.168 245.209 285.352ZM268.387 278.512C270.019 278.512 271.331 279.016 272.323 280.024C273.331 281.016 273.835 282.408 273.835 284.2V292H270.475V284.656C270.475 283.616 270.211 282.824 269.683 282.28C269.155 281.72 268.435 281.44 267.523 281.44C266.611 281.44 265.883 281.72 265.339 282.28C264.811 282.824 264.547 283.616 264.547 284.656V292H261.187V284.656C261.187 283.616 260.923 282.824 260.395 282.28C259.867 281.72 259.147 281.44 258.235 281.44C257.307 281.44 256.571 281.72 256.027 282.28C255.499 282.824 255.235 283.616 255.235 284.656V292H251.875V278.704H255.235V280.312C255.667 279.752 256.219 279.312 256.891 278.992C257.579 278.672 258.331 278.512 259.147 278.512C260.187 278.512 261.115 278.736 261.931 279.184C262.747 279.616 263.379 280.24 263.827 281.056C264.259 280.288 264.883 279.672 265.699 279.208C266.531 278.744 267.427 278.512 268.387 278.512ZM280.383 280.648C280.815 280.008 281.407 279.488 282.159 279.088C282.927 278.688 283.799 278.488 284.775 278.488C285.911 278.488 286.935 278.768 287.847 279.328C288.775 279.888 289.503 280.688 290.031 281.728C290.575 282.752 290.847 283.944 290.847 285.304C290.847 286.664 290.575 287.872 290.031 288.928C289.503 289.968 288.775 290.776 287.847 291.352C286.935 291.928 285.911 292.216 284.775 292.216C283.783 292.216 282.911 292.024 282.159 291.64C281.423 291.24 280.831 290.728 280.383 290.104V292H277.023V274.24H280.383V280.648ZM287.415 285.304C287.415 284.504 287.247 283.816 286.911 283.24C286.591 282.648 286.159 282.2 285.615 281.896C285.087 281.592 284.511 281.44 283.887 281.44C283.279 281.44 282.703 281.6 282.159 281.92C281.631 282.224 281.199 282.672 280.863 283.264C280.543 283.856 280.383 284.552 280.383 285.352C280.383 286.152 280.543 286.848 280.863 287.44C281.199 288.032 281.631 288.488 282.159 288.808C282.703 289.112 283.279 289.264 283.887 289.264C284.511 289.264 285.087 289.104 285.615 288.784C286.159 288.464 286.591 288.008 286.911 287.416C287.247 286.824 287.415 286.12 287.415 285.304ZM292.425 285.304C292.425 283.96 292.689 282.768 293.217 281.728C293.761 280.688 294.489 279.888 295.401 279.328C296.329 278.768 297.361 278.488 298.497 278.488C299.489 278.488 300.353 278.688 301.089 279.088C301.841 279.488 302.441 279.992 302.889 280.6V278.704H306.273V292H302.889V290.056C302.457 290.68 301.857 291.2 301.089 291.616C300.337 292.016 299.465 292.216 298.473 292.216C297.353 292.216 296.329 291.928 295.401 291.352C294.489 290.776 293.761 289.968 293.217 288.928C292.689 287.872 292.425 286.664 292.425 285.304ZM302.889 285.352C302.889 284.536 302.729 283.84 302.409 283.264C302.089 282.672 301.657 282.224 301.113 281.92C300.569 281.6 299.985 281.44 299.361 281.44C298.737 281.44 298.161 281.592 297.633 281.896C297.105 282.2 296.673 282.648 296.337 283.24C296.017 283.816 295.857 284.504 295.857 285.304C295.857 286.104 296.017 286.808 296.337 287.416C296.673 288.008 297.105 288.464 297.633 288.784C298.177 289.104 298.753 289.264 299.361 289.264C299.985 289.264 300.569 289.112 301.113 288.808C301.657 288.488 302.089 288.04 302.409 287.464C302.729 286.872 302.889 286.168 302.889 285.352ZM317.042 278.512C318.05 278.512 318.946 278.736 319.73 279.184C320.514 279.616 321.122 280.264 321.554 281.128C322.002 281.976 322.226 283 322.226 284.2V292H318.866V284.656C318.866 283.6 318.602 282.792 318.074 282.232C317.546 281.656 316.826 281.368 315.914 281.368C314.986 281.368 314.25 281.656 313.706 282.232C313.178 282.792 312.914 283.6 312.914 284.656V292H309.554V274.24H312.914V280.36C313.346 279.784 313.922 279.336 314.642 279.016C315.362 278.68 316.162 278.512 317.042 278.512ZM349.404 275.248V292H346.044V281.104L341.556 292H339.012L334.5 281.104V292H331.14V275.248H334.956L340.284 287.704L345.612 275.248H349.404ZM351.862 285.304C351.862 283.96 352.126 282.768 352.654 281.728C353.198 280.688 353.926 279.888 354.838 279.328C355.766 278.768 356.798 278.488 357.934 278.488C358.926 278.488 359.79 278.688 360.526 279.088C361.278 279.488 361.878 279.992 362.326 280.6V278.704H365.71V292H362.326V290.056C361.894 290.68 361.294 291.2 360.526 291.616C359.774 292.016 358.902 292.216 357.91 292.216C356.79 292.216 355.766 291.928 354.838 291.352C353.926 290.776 353.198 289.968 352.654 288.928C352.126 287.872 351.862 286.664 351.862 285.304ZM362.326 285.352C362.326 284.536 362.166 283.84 361.846 283.264C361.526 282.672 361.094 282.224 360.55 281.92C360.006 281.6 359.422 281.44 358.798 281.44C358.174 281.44 357.598 281.592 357.07 281.896C356.542 282.2 356.11 282.648 355.774 283.24C355.454 283.816 355.294 284.504 355.294 285.304C355.294 286.104 355.454 286.808 355.774 287.416C356.11 288.008 356.542 288.464 357.07 288.784C357.614 289.104 358.19 289.264 358.798 289.264C359.422 289.264 360.006 289.112 360.55 288.808C361.094 288.488 361.526 288.04 361.846 287.464C362.166 286.872 362.326 286.168 362.326 285.352ZM372.904 281.464V287.896C372.904 288.344 373.008 288.672 373.216 288.88C373.44 289.072 373.808 289.168 374.32 289.168H375.88V292H373.768C370.936 292 369.52 290.624 369.52 287.872V281.464H367.936V278.704H369.52V275.416H372.904V278.704H375.88V281.464H372.904ZM377.433 285.304C377.433 283.96 377.697 282.768 378.225 281.728C378.769 280.688 379.497 279.888 380.409 279.328C381.337 278.768 382.369 278.488 383.505 278.488C384.497 278.488 385.361 278.688 386.097 279.088C386.849 279.488 387.449 279.992 387.897 280.6V278.704H391.281V292H387.897V290.056C387.465 290.68 386.865 291.2 386.097 291.616C385.345 292.016 384.473 292.216 383.481 292.216C382.361 292.216 381.337 291.928 380.409 291.352C379.497 290.776 378.769 289.968 378.225 288.928C377.697 287.872 377.433 286.664 377.433 285.304ZM387.897 285.352C387.897 284.536 387.737 283.84 387.417 283.264C387.097 282.672 386.665 282.224 386.121 281.92C385.577 281.6 384.993 281.44 384.369 281.44C383.745 281.44 383.169 281.592 382.641 281.896C382.113 282.2 381.681 282.648 381.345 283.24C381.025 283.816 380.865 284.504 380.865 285.304C380.865 286.104 381.025 286.808 381.345 287.416C381.681 288.008 382.113 288.464 382.641 288.784C383.185 289.104 383.761 289.264 384.369 289.264C384.993 289.264 385.577 289.112 386.121 288.808C386.665 288.488 387.097 288.04 387.417 287.464C387.737 286.872 387.897 286.168 387.897 285.352ZM409.737 292L403.641 284.536V292H400.281V275.248H403.641V282.76L409.737 275.248H413.793L406.881 283.552L413.985 292H409.737ZM428.747 278.704V292H425.363V290.32C424.931 290.896 424.363 291.352 423.659 291.688C422.971 292.008 422.219 292.168 421.403 292.168C420.363 292.168 419.443 291.952 418.643 291.52C417.843 291.072 417.211 290.424 416.747 289.576C416.299 288.712 416.075 287.688 416.075 286.504V278.704H419.435V286.024C419.435 287.08 419.699 287.896 420.227 288.472C420.755 289.032 421.475 289.312 422.387 289.312C423.315 289.312 424.043 289.032 424.571 288.472C425.099 287.896 425.363 287.08 425.363 286.024V278.704H428.747ZM435.422 274.24V292H432.062V274.24H435.422ZM440.446 277.12C439.854 277.12 439.358 276.936 438.958 276.568C438.574 276.184 438.382 275.712 438.382 275.152C438.382 274.592 438.574 274.128 438.958 273.76C439.358 273.376 439.854 273.184 440.446 273.184C441.038 273.184 441.526 273.376 441.91 273.76C442.31 274.128 442.51 274.592 442.51 275.152C442.51 275.712 442.31 276.184 441.91 276.568C441.526 276.936 441.038 277.12 440.446 277.12ZM442.102 278.704V292H438.742V278.704H442.102ZM444.558 285.304C444.558 283.96 444.822 282.768 445.35 281.728C445.894 280.688 446.622 279.888 447.534 279.328C448.462 278.768 449.494 278.488 450.63 278.488C451.622 278.488 452.486 278.688 453.222 279.088C453.974 279.488 454.574 279.992 455.022 280.6V278.704H458.406V292H455.022V290.056C454.59 290.68 453.99 291.2 453.222 291.616C452.47 292.016 451.598 292.216 450.606 292.216C449.486 292.216 448.462 291.928 447.534 291.352C446.622 290.776 445.894 289.968 445.35 288.928C444.822 287.872 444.558 286.664 444.558 285.304ZM455.022 285.352C455.022 284.536 454.862 283.84 454.542 283.264C454.222 282.672 453.79 282.224 453.246 281.92C452.702 281.6 452.118 281.44 451.494 281.44C450.87 281.44 450.294 281.592 449.766 281.896C449.238 282.2 448.806 282.648 448.47 283.24C448.15 283.816 447.99 284.504 447.99 285.304C447.99 286.104 448.15 286.808 448.47 287.416C448.806 288.008 449.238 288.464 449.766 288.784C450.31 289.104 450.886 289.264 451.494 289.264C452.118 289.264 452.702 289.112 453.246 288.808C453.79 288.488 454.222 288.04 454.542 287.464C454.862 286.872 455.022 286.168 455.022 285.352ZM469.175 278.512C470.183 278.512 471.079 278.736 471.863 279.184C472.647 279.616 473.255 280.264 473.687 281.128C474.135 281.976 474.359 283 474.359 284.2V292H470.999V284.656C470.999 283.6 470.735 282.792 470.207 282.232C469.679 281.656 468.959 281.368 468.047 281.368C467.119 281.368 466.383 281.656 465.839 282.232C465.311 282.792 465.047 283.6 465.047 284.656V292H461.687V274.24H465.047V280.36C465.479 279.784 466.055 279.336 466.775 279.016C467.495 278.68 468.295 278.512 469.175 278.512Z" fill="#555555"/>
<path d="M456.621 73.0298H260.015C258.685 73.0298 257.41 72.5015 256.469 71.561C255.528 70.6205 255 69.3449 255 68.0149C255 66.6849 255.528 65.4093 256.469 64.4688C257.41 63.5284 258.685 63 260.015 63H456.621C457.951 63 459.227 63.5284 460.168 64.4688C461.108 65.4093 461.637 66.6849 461.637 68.0149C461.637 69.3449 461.108 70.6205 460.168 71.561C459.227 72.5015 457.951 73.0298 456.621 73.0298Z" fill="#E6E6E6"/>
<path d="M456.621 139.03H260.015C258.685 139.03 257.41 138.501 256.469 137.561C255.528 136.621 255 135.345 255 134.015C255 132.685 255.528 131.409 256.469 130.469C257.41 129.528 258.685 129 260.015 129H456.621C457.951 129 459.227 129.528 460.168 130.469C461.108 131.409 461.637 132.685 461.637 134.015C461.637 135.345 461.108 136.621 460.168 137.561C459.227 138.501 457.951 139.03 456.621 139.03Z" fill="#E6E6E6"/>
<path d="M456.621 210.03H260.015C258.685 210.03 257.41 209.501 256.469 208.561C255.528 207.621 255 206.345 255 205.015C255 203.685 255.528 202.409 256.469 201.469C257.41 200.528 258.685 200 260.015 200H456.621C457.951 200 459.227 200.528 460.168 201.469C461.108 202.409 461.637 203.685 461.637 205.015C461.637 206.345 461.108 207.621 460.168 208.561C459.227 209.501 457.951 210.03 456.621 210.03Z" fill="#E6E6E6"/>
<path d="M488.675 77.1079C509.971 77.1079 527.234 59.8467 527.234 38.554C527.234 17.2612 509.971 0 488.675 0C467.38 0 450.117 17.2612 450.117 38.554C450.117 59.8467 467.38 77.1079 488.675 77.1079Z" fill="#D9019C"/>
<path d="M472.61 36.0092C471.935 36.0092 471.288 36.2772 470.811 36.7544C470.334 37.2315 470.065 37.8786 470.065 38.5534C470.065 39.2282 470.334 39.8753 470.811 40.3524C471.288 40.8296 471.935 41.0976 472.61 41.0976H486.132V54.6172C486.133 55.2908 486.402 55.9364 486.879 56.4122C487.356 56.888 488.002 57.1552 488.676 57.1552C489.35 57.1552 489.996 56.888 490.473 56.4122C490.95 55.9364 491.218 55.2908 491.22 54.6172V41.0976H504.742C505.416 41.0976 506.064 40.8296 506.541 40.3524C507.018 39.8753 507.286 39.2282 507.286 38.5534C507.286 37.8786 507.018 37.2315 506.541 36.7544C506.064 36.2772 505.416 36.0092 504.742 36.0092H491.22V22.489C491.22 21.8143 490.952 21.1672 490.475 20.6902C489.998 20.2131 489.351 19.9451 488.676 19.9451C488.001 19.9451 487.354 20.2131 486.877 20.6902C486.4 21.1672 486.132 21.8143 486.132 22.489V36.0092H472.61Z" fill="white"/>
<path d="M541 411.663H0V413H541V411.663Z" fill="#CACACA"/>
<path d="M452.065 381.17C454.553 382.045 457.224 382.264 459.821 381.806C462.418 381.349 464.854 380.23 466.894 378.558C472.088 374.199 473.715 367.018 475.041 360.371L478.959 340.703L470.755 346.35C464.855 350.413 458.821 354.605 454.736 360.489C450.651 366.373 448.867 374.406 452.15 380.773" fill="#E6E6E6"/>
<path d="M453.332 406.35C452.297 398.827 451.237 391.209 451.962 383.604C452.606 376.851 454.666 370.256 458.861 364.848C461.087 361.982 463.797 359.528 466.867 357.593C467.669 357.088 468.405 358.357 467.607 358.86C462.295 362.217 458.186 367.174 455.873 373.017C453.318 379.514 452.908 386.596 453.349 393.499C453.616 397.672 454.179 401.819 454.748 405.96C454.792 406.148 454.764 406.345 454.669 406.512C454.574 406.68 454.419 406.805 454.235 406.862C454.048 406.914 453.848 406.888 453.679 406.792C453.51 406.696 453.385 406.538 453.333 406.35H453.332Z" fill="#F2F2F2"/>
<path d="M447.478 395.113C446.211 396.609 444.58 397.755 442.741 398.438C440.903 399.121 438.92 399.319 436.982 399.014C432.011 398.171 428.265 394.176 424.914 390.409L415 379.266L422.389 379.804C427.702 380.191 433.15 380.612 437.984 382.85C442.818 385.089 446.984 389.571 447.273 394.89" fill="#E6E6E6"/>
<path d="M455.984 410.651C454.242 406.459 452.485 402.208 449.813 398.505C447.52 395.151 444.319 392.518 440.584 390.917C438.569 390.112 436.43 389.665 434.261 389.596C433.696 389.577 433.699 390.455 434.261 390.473C438.017 390.598 441.635 391.913 444.595 394.227C447.878 396.806 450.231 400.335 452.092 404.028C453.216 406.261 454.179 408.57 455.138 410.878C455.172 410.988 455.246 411.081 455.345 411.138C455.444 411.196 455.561 411.214 455.673 411.188C455.785 411.158 455.881 411.084 455.939 410.984C455.997 410.883 456.014 410.764 455.984 410.651Z" fill="#F2F2F2"/>
<path d="M460.765 394.281C461.832 395.902 463.299 397.222 465.024 398.112C466.749 399.002 468.674 399.433 470.614 399.362C475.6 399.126 479.757 395.646 483.499 392.342L494.566 382.571L487.242 382.221C481.974 381.969 476.571 381.733 471.553 383.357C466.536 384.982 461.909 388.891 460.991 394.083" fill="#E6E6E6"/>
<path d="M450.412 410.675C455.384 401.879 461.151 392.103 471.454 388.979C474.319 388.113 477.323 387.803 480.305 388.065C481.245 388.146 481.01 389.594 480.072 389.513C475.075 389.098 470.087 390.418 465.948 393.25C461.966 395.96 458.865 399.728 456.24 403.725C454.635 406.173 453.193 408.724 451.752 411.273C451.292 412.087 449.947 411.499 450.412 410.675Z" fill="#F2F2F2"/>
<path d="M528.041 396.966C526.121 397.641 524.06 397.81 522.056 397.457C520.052 397.104 518.172 396.241 516.598 394.951C512.59 391.587 511.333 386.045 510.312 380.914L507.287 365.735L513.62 370.095C518.173 373.23 522.829 376.465 525.982 381.006C529.134 385.547 530.511 391.746 527.978 396.659" fill="#E6E6E6"/>
<path d="M526.293 411.373C526.85 407.316 527.423 403.207 527.032 399.108C526.778 395.451 525.488 391.943 523.312 388.994C522.111 387.449 520.65 386.125 518.995 385.082C518.563 384.81 518.166 385.494 518.594 385.765C521.458 387.575 523.674 390.248 524.921 393.399C526.299 396.903 526.52 400.721 526.283 404.443C526.139 406.694 525.835 408.93 525.528 411.162C525.504 411.263 525.519 411.369 525.571 411.46C525.622 411.55 525.705 411.617 525.804 411.648C525.906 411.675 526.013 411.661 526.104 411.609C526.195 411.558 526.262 411.473 526.291 411.372L526.293 411.373Z" fill="#F2F2F2"/>
<circle cx="237" cy="68" r="5" fill="#E5E5E5"/>
<circle cx="237" cy="134" r="5" fill="#E5E5E5"/>
<circle cx="237" cy="205" r="5" fill="#E5E5E5"/>
<path d="M220.592 179.122C219.917 178.057 219.029 177.15 217.986 176.46C216.943 175.77 215.769 175.313 214.54 175.117C213.312 174.922 212.057 174.994 210.858 175.328C209.658 175.661 208.541 176.25 207.581 177.054C207.278 177.31 206.992 177.587 206.728 177.884L172.041 172.736L170.11 146.145C169.963 144.105 169.026 142.208 167.507 140.872C165.987 139.536 164.009 138.87 162.008 139.021C160.007 139.172 158.147 140.127 156.836 141.676C155.526 143.225 154.873 145.241 155.021 147.281C155.024 147.328 155.028 147.376 155.032 147.423L158.413 184.735L158.43 184.818C158.87 186.253 159.752 187.504 160.945 188.387C162.137 189.27 163.578 189.737 165.052 189.719L205.851 189.001C206.009 189.248 206.18 189.486 206.362 189.714C207.152 190.693 208.135 191.492 209.248 192.057C210.361 192.622 211.578 192.941 212.821 192.992C214.063 193.044 215.302 192.828 216.457 192.358C217.611 191.887 218.655 191.173 219.52 190.263C219.696 190.08 219.862 189.89 220.019 189.695C221.195 188.218 221.884 186.401 221.987 184.503C222.089 182.604 221.601 180.721 220.592 179.122Z" fill="#FFB7B7"/>
<path d="M151.001 402L160.487 401.999L165 363L151 363.001L151.001 402Z" fill="#FFB7B7"/>
<path d="M148.001 411L180 410.999V410.59C180 407.251 178.687 404.049 176.352 401.688C174.016 399.327 170.848 398 167.545 398H167.544L148 398.001L148.001 411Z" fill="#2F2E41"/>
<path d="M81 392.832L90.6723 396L108 361.676L93.7238 357L81 392.832Z" fill="#FFB7B7"/>
<path d="M76 400.9L106.205 411L106.335 410.625C107.398 407.569 107.18 404.223 105.727 401.324C104.274 398.426 101.707 396.211 98.5889 395.169L98.5881 395.168L80.14 389L76 400.9Z" fill="#2F2E41"/>
<path d="M139.887 67.2575C139.887 67.2575 149.66 63.9793 155.943 77.0921C162.226 90.2049 172 104.629 172 104.629L166.415 105.94C166.415 105.94 165.019 96.7613 161.528 95.45L162.924 107.251C162.924 107.251 121.038 121.02 102.189 105.94L102.887 101.351C102.887 101.351 100.094 102.006 100.094 105.94L98 103.973C98 103.973 100.094 100.039 106.377 94.7944C110.501 91.3517 111.918 84.8021 112.405 80.7071C112.792 77.2403 114.255 73.9885 116.584 71.4237C120.76 66.8791 128.368 62.0488 139.887 67.2575Z" fill="#2F2E41"/>
<path d="M136 113C126.059 113 118 104.941 118 95C118 85.0589 126.059 77 136 77C145.941 77 154 85.0589 154 95C154 104.941 145.941 113 136 113Z" fill="#FFB7B7"/>
<path d="M159.889 128.097L163.222 127C163.222 127 169.889 129.742 169.889 134.677C169.889 139.613 171 159.355 171 159.355L156 161L159.889 128.097Z" fill="#CBCBCB"/>
<path d="M101.754 235.113C103.091 233.594 103.845 231.639 103.88 229.603C103.916 227.568 103.229 225.587 101.946 224.022L110.992 147.188C111.08 145.376 110.456 143.603 109.257 142.257C108.058 140.911 106.381 140.102 104.595 140.009C102.809 139.916 101.059 140.545 99.7295 141.759C98.4002 142.972 97.5999 144.672 97.5044 146.483C97.5031 146.508 97.502 146.533 97.501 146.558L89.4087 223.474C89.1153 223.772 88.8449 224.093 88.5999 224.434C87.9508 225.344 87.4849 226.375 87.2287 227.468C86.9725 228.561 86.9311 229.695 87.1068 230.804C87.2825 231.913 87.6719 232.977 88.2527 233.933C88.8336 234.89 89.5945 235.721 90.4921 236.379C90.5851 236.447 90.6795 236.514 90.7752 236.578C91.8144 237.275 92.9929 237.731 94.2262 237.912C95.4596 238.093 96.7171 237.994 97.9086 237.624C99.3963 237.167 100.728 236.297 101.754 235.113Z" fill="#FFB7B7"/>
<path d="M110 159L95 157.355C95 157.355 96.1111 137.613 96.1111 132.677C96.1111 127.742 102.778 125 102.778 125L106.111 126.097L110 159Z" fill="#CBCBCB"/>
<path d="M158.257 186.01C158.257 186.01 170.901 209.037 170.901 236.965C170.901 264.893 172 393.032 172 393.032C172 393.032 155.509 400.698 145.614 391.389L136.819 249.56L102.187 388.651C102.187 388.651 85.6959 391.937 78 386.461L92.8421 289.535C92.8421 289.535 98.8889 198.633 115.38 192.061C131.871 185.49 158.257 186.01 158.257 186.01Z" fill="#2F2E41"/>
<path d="M155.347 95C148.938 90.4828 143.751 85.28 140.32 79.091C140.32 79.091 128.56 91.8182 121.373 92.4545C114.186 93.0909 120.719 77.1819 120.719 77.1819L133.786 74L146.2 75.2727L156 81.6364L155.347 95Z" fill="#2F2E41"/>
<path d="M118.308 122.03C118.308 122.03 117.795 121.754 148.46 122.876L161.294 126.428L163 126.9C163 126.9 161.385 159.368 157.077 165.32C152.769 171.273 153.846 174.519 154.923 175.061C156 175.602 158.692 174.519 157.077 177.225C155.462 179.931 153.308 178.307 155.462 179.931C157.615 181.554 158.692 187.506 158.692 187.506L111.308 194C111.308 194 109.692 172.896 105.385 162.074C101.077 151.251 100 146.922 100 146.922L103.231 125.277L118.308 122.03Z" fill="#CBCBCB"/>
</g>
<defs>
<clipPath id="clip0_1_3438">
<rect width="541" height="413" fill="white"/>
</clipPath>
</defs>
</svg>
